<?xml version="1.0" standalone="no"?>
<!DOCTYPE svg PUBLIC "-//W3C//DTD SVG 1.1//EN" "http://www.w3.org/Graphics/SVG/1.1/DTD/svg11.dtd" >
<svg xmlns="http://www.w3.org/2000/svg">
<metadata>Generated by IcoMoon</metadata>
<defs>
<font id="icomoon" horiz-adv-x="1024">
<font-face units-per-em="1024" ascent="960" descent="-64" />
<missing-glyph horiz-adv-x="1024" />
<glyph unicode="&#x20;" horiz-adv-x="512" d="" />
<glyph unicode="&#xe900;" glyph-name="instagram" horiz-adv-x="878" d="M585.143 438.857c0 80.571-65.714 146.286-146.286 146.286s-146.286-65.714-146.286-146.286 65.714-146.286 146.286-146.286 146.286 65.714 146.286 146.286zM664 438.857c0-124.571-100.571-225.143-225.143-225.143s-225.143 100.571-225.143 225.143 100.571 225.143 225.143 225.143 225.143-100.571 225.143-225.143zM725.714 673.143c0-29.143-23.429-52.571-52.571-52.571s-52.571 23.429-52.571 52.571 23.429 52.571 52.571 52.571 52.571-23.429 52.571-52.571zM438.857 798.857c-64 0-201.143 5.143-258.857-17.714-20-8-34.857-17.714-50.286-33.143s-25.143-30.286-33.143-50.286c-22.857-57.714-17.714-194.857-17.714-258.857s-5.143-201.143 17.714-258.857c8-20 17.714-34.857 33.143-50.286s30.286-25.143 50.286-33.143c57.714-22.857 194.857-17.714 258.857-17.714s201.143-5.143 258.857 17.714c20 8 34.857 17.714 50.286 33.143s25.143 30.286 33.143 50.286c22.857 57.714 17.714 194.857 17.714 258.857s5.143 201.143-17.714 258.857c-8 20-17.714 34.857-33.143 50.286s-30.286 25.143-50.286 33.143c-57.714 22.857-194.857 17.714-258.857 17.714zM877.714 438.857c0-60.571 0.571-120.571-2.857-181.143-3.429-70.286-19.429-132.571-70.857-184s-113.714-67.429-184-70.857c-60.571-3.429-120.571-2.857-181.143-2.857s-120.571-0.571-181.143 2.857c-70.286 3.429-132.571 19.429-184 70.857s-67.429 113.714-70.857 184c-3.429 60.571-2.857 120.571-2.857 181.143s-0.571 120.571 2.857 181.143c3.429 70.286 19.429 132.571 70.857 184s113.714 67.429 184 70.857c60.571 3.429 120.571 2.857 181.143 2.857s120.571 0.571 181.143-2.857c70.286-3.429 132.571-19.429 184-70.857s67.429-113.714 70.857-184c3.429-60.571 2.857-120.571 2.857-181.143z" />
<glyph unicode="&#xe901;" glyph-name="twitter" horiz-adv-x="951" d="M925.714 717.714c-25.143-36.571-56.571-69.143-92.571-95.429 0.571-8 0.571-16 0.571-24 0-244-185.714-525.143-525.143-525.143-104.571 0-201.714 30.286-283.429 82.857 14.857-1.714 29.143-2.286 44.571-2.286 86.286 0 165.714 29.143 229.143 78.857-81.143 1.714-149.143 54.857-172.571 128 11.429-1.714 22.857-2.857 34.857-2.857 16.571 0 33.143 2.286 48.571 6.286-84.571 17.143-148 91.429-148 181.143v2.286c24.571-13.714 53.143-22.286 83.429-23.429-49.714 33.143-82.286 89.714-82.286 153.714 0 34.286 9.143 65.714 25.143 93.143 90.857-112 227.429-185.143 380.571-193.143-2.857 13.714-4.571 28-4.571 42.286 0 101.714 82.286 184.571 184.571 184.571 53.143 0 101.143-22.286 134.857-58.286 41.714 8 81.714 23.429 117.143 44.571-13.714-42.857-42.857-78.857-81.143-101.714 37.143 4 73.143 14.286 106.286 28.571z" />
<glyph unicode="&#xe902;" glyph-name="google-plus" horiz-adv-x="1317" d="M821.143 429.143c0-239.429-160.571-409.143-402.286-409.143-231.429 0-418.857 187.429-418.857 418.857s187.429 418.857 418.857 418.857c113.143 0 207.429-41.143 280.571-109.714l-113.714-109.143c-30.857 29.714-85.143 64.571-166.857 64.571-142.857 0-259.429-118.286-259.429-264.571s116.571-264.571 259.429-264.571c165.714 0 228 119.429 237.714 180.571h-237.714v144h395.429c4-21.143 6.857-42.286 6.857-69.714zM1316.571 498.857v-120h-119.429v-119.429h-120v119.429h-119.429v120h119.429v119.429h120v-119.429h119.429z" />
<glyph unicode="&#xe903;" glyph-name="facebook, facebook-f" horiz-adv-x="602" d="M548 944v-150.857h-89.714c-70.286 0-83.429-33.714-83.429-82.286v-108h167.429l-22.286-169.143h-145.143v-433.714h-174.857v433.714h-145.714v169.143h145.714v124.571c0 144.571 88.571 223.429 217.714 223.429 61.714 0 114.857-4.571 130.286-6.857z" />
<glyph unicode="&#xe904;" glyph-name="subdirectory_arrow_right" d="M810 298.667l-256-256-60 60 154 154h-478v512h86v-428h392l-154 154 60 60z" />
<glyph unicode="&#xe905;" glyph-name="subdirectory_arrow_left" d="M470 554.667l60-60-154-154h392v428h86v-512h-478l154-154-60-60-256 256z" />
<glyph unicode="&#xe906;" glyph-name="keyboard_arrow_up" d="M316 280.667l-60 60 256 256 256-256-60-60-196 196z" />
<glyph unicode="&#xe907;" glyph-name="keyboard_arrow_right" d="M366 240.667l196 196-196 196 60 60 256-256-256-256z" />
<glyph unicode="&#xe908;" glyph-name="keyboard_arrow_left" d="M658 252.667l-60-60-256 256 256 256 60-60-196-196z" />
<glyph unicode="&#xe909;" glyph-name="keyboard_arrow_down" d="M316 604.667l196-196 196 196 60-60-256-256-256 256z" />
<glyph unicode="&#xe90a;" glyph-name="arrow_upward" d="M170 426.667l342 342 342-342-62-60-238 238v-520h-84v520l-240-238z" />
<glyph unicode="&#xe90b;" glyph-name="arrow_forward" d="M512 768.667l342-342-342-342-60 60 238 240h-520v84h520l-238 240z" />
<glyph unicode="&#xe90c;" glyph-name="arrow_drop_up" d="M298 340.667l214 214 214-214h-428z" />
<glyph unicode="&#xe90d;" glyph-name="arrow_drop_down" d="M298 512.667h428l-214-214z" />
<glyph unicode="&#xe90e;" glyph-name="arrow_downward" d="M854 426.667l-342-342-342 342 62 60 238-238v520h84v-520l240 238z" />
<glyph unicode="&#xe90f;" glyph-name="arrow_back" d="M854 468.667v-84h-520l238-240-60-60-342 342 342 342 60-60-238-240h520z" />
<glyph unicode="&#xe910;" glyph-name="settings" d="M512 276.667c82 0 150 68 150 150s-68 150-150 150-150-68-150-150 68-150 150-150zM830 384.667l90-70c8-6 10-18 4-28l-86-148c-6-10-16-12-26-8l-106 42c-22-16-46-32-72-42l-16-112c-2-10-10-18-20-18h-172c-10 0-18 8-20 18l-16 112c-26 10-50 24-72 42l-106-42c-10-4-20-2-26 8l-86 148c-6 10-4 22 4 28l90 70c-2 14-2 28-2 42s0 28 2 42l-90 70c-8 6-10 18-4 28l86 148c6 10 16 12 26 8l106-42c22 16 46 32 72 42l16 112c2 10 10 18 20 18h172c10 0 18-8 20-18l16-112c26-10 50-24 72-42l106 42c10 4 20 2 26-8l86-148c6-10 4-22-4-28l-90-70c2-14 2-28 2-42s0-28-2-42z" />
<glyph unicode="&#xe911;" glyph-name="person_outline" d="M512 384.667c114 0 342-58 342-172v-128h-684v128c0 114 228 172 342 172zM512 768.667c94 0 170-78 170-172s-76-170-170-170-170 76-170 170 76 172 170 172zM512 302.667c-126 0-260-62-260-90v-46h520v46c0 28-134 90-260 90zM512 686.667c-50 0-90-40-90-90s40-88 90-88 90 38 90 88-40 90-90 90z" />
<glyph unicode="&#xe912;" glyph-name="youtube-play" d="M406.286 306.286l276.571 142.857-276.571 144.571v-287.429zM512 798.857c215.429 0 358.286-10.286 358.286-10.286 20-2.286 64-2.286 102.857-43.429 0 0 31.429-30.857 40.571-101.714 10.857-82.857 10.286-165.714 10.286-165.714v-77.714s0.571-82.857-10.286-165.714c-9.143-70.286-40.571-101.714-40.571-101.714-38.857-40.571-82.857-40.571-102.857-42.857 0 0-142.857-10.857-358.286-10.857v0c-266.286 2.286-348 10.286-348 10.286-22.857 4-74.286 2.857-113.143 43.429 0 0-31.429 31.429-40.571 101.714-10.857 82.857-10.286 165.714-10.286 165.714v77.714s-0.571 82.857 10.286 165.714c9.143 70.857 40.571 101.714 40.571 101.714 38.857 41.143 82.857 41.143 102.857 43.429 0 0 142.857 10.286 358.286 10.286v0z" />
<glyph unicode="&#xe913;" glyph-name="spin-alt" d="M150.112 85.76c-96.864 96.736-150.112 225.248-150.112 362.24 0 282.24 229.632 512 512 512l64-64-64-64c-211.744 0-384-172.256-384-384 0-102.752 40-199.264 112.64-271.744l-78.624-10.24-11.904-80.256zM512-64l-64 63.744 64 64.256c211.744 0 384 172.256 384 384 0 102.496-40 199.008-112.736 271.616l78.752 10.368 11.744 80.128c96.864-96.736 150.24-225.376 150.24-362.112 0-282.24-229.76-512-512-512v0z" />
<glyph unicode="&#xe914;" glyph-name="bars" horiz-adv-x="878" d="M877.714 182.857v-73.143c0-20-16.571-36.571-36.571-36.571h-804.571c-20 0-36.571 16.571-36.571 36.571v73.143c0 20 16.571 36.571 36.571 36.571h804.571c20 0 36.571-16.571 36.571-36.571zM877.714 475.428v-73.143c0-20-16.571-36.571-36.571-36.571h-804.571c-20 0-36.571 16.571-36.571 36.571v73.143c0 20 16.571 36.571 36.571 36.571h804.571c20 0 36.571-16.571 36.571-36.571zM877.714 768v-73.143c0-20-16.571-36.571-36.571-36.571h-804.571c-20 0-36.571 16.571-36.571 36.571v73.143c0 20 16.571 36.571 36.571 36.571h804.571c20 0 36.571-16.571 36.571-36.571z" />
<glyph unicode="&#xe915;" glyph-name="search" d="M406 340.667c106 0 192 86 192 192s-86 192-192 192-192-86-192-192 86-192 192-192zM662 340.667l212-212-64-64-212 212v34l-12 12c-48-42-112-66-180-66-154 0-278 122-278 276s124 278 278 278 276-124 276-278c0-68-24-132-66-180l12-12h34z" />
<glyph unicode="&#xe916;" glyph-name="close" horiz-adv-x="805" d="M741.714 195.428c0-14.286-5.714-28.571-16-38.857l-77.714-77.714c-10.286-10.286-24.571-16-38.857-16s-28.571 5.714-38.857 16l-168 168-168-168c-10.286-10.286-24.571-16-38.857-16s-28.571 5.714-38.857 16l-77.714 77.714c-10.286 10.286-16 24.571-16 38.857s5.714 28.571 16 38.857l168 168-168 168c-10.286 10.286-16 24.571-16 38.857s5.714 28.571 16 38.857l77.714 77.714c10.286 10.286 24.571 16 38.857 16s28.571-5.714 38.857-16l168-168 168 168c10.286 10.286 24.571 16 38.857 16s28.571-5.714 38.857-16l77.714-77.714c10.286-10.286 16-24.571 16-38.857s-5.714-28.571-16-38.857l-168-168 168-168c10.286-10.286 16-24.571 16-38.857z" />
<glyph unicode="&#xe917;" glyph-name="plus" d="M810.667 469.334h-256v256c0 25.6-17.067 42.667-42.667 42.667s-42.667-17.067-42.667-42.667v-256h-256c-25.6 0-42.667-17.067-42.667-42.667s17.067-42.667 42.667-42.667h256v-256c0-25.6 17.067-42.667 42.667-42.667s42.667 17.067 42.667 42.667v256h256c25.6 0 42.667 17.067 42.667 42.667s-17.067 42.667-42.667 42.667z" />
<glyph unicode="&#xe918;" glyph-name="minus" d="M810.667 469.334h-597.333c-25.6 0-42.667-17.067-42.667-42.667s17.067-42.667 42.667-42.667h597.333c25.6 0 42.667 17.067 42.667 42.667s-17.067 42.667-42.667 42.667z" />
<glyph unicode="&#xe919;" glyph-name="circle" horiz-adv-x="878" d="M877.714 438.857c0-242.286-196.571-438.857-438.857-438.857s-438.857 196.571-438.857 438.857 196.571 438.857 438.857 438.857 438.857-196.571 438.857-438.857z" />
<glyph unicode="&#xe91a;" glyph-name="home" horiz-adv-x="951" d="M804.571 384v-274.286c0-20-16.571-36.571-36.571-36.571h-219.429v219.429h-146.286v-219.429h-219.429c-20 0-36.571 16.571-36.571 36.571v274.286c0 1.143 0.571 2.286 0.571 3.429l328.571 270.857 328.571-270.857c0.571-1.143 0.571-2.286 0.571-3.429zM932 423.428l-35.429-42.286c-2.857-3.429-7.429-5.714-12-6.286h-1.714c-4.571 0-8.571 1.143-12 4l-395.429 329.714-395.429-329.714c-4-2.857-8.571-4.571-13.714-4-4.571 0.571-9.143 2.857-12 6.286l-35.429 42.286c-6.286 7.429-5.143 19.429 2.286 25.714l410.857 342.286c24 20 62.857 20 86.857 0l139.429-116.571v111.429c0 10.286 8 18.286 18.286 18.286h109.714c10.286 0 18.286-8 18.286-18.286v-233.143l125.143-104c7.429-6.286 8.571-18.286 2.286-25.714z" />
<glyph unicode="&#xe91b;" glyph-name="check" d="M384 248.667l452 452 60-60-512-512-238 238 60 60z" />
<glyph unicode="&#xe91c;" glyph-name="whatsapp" horiz-adv-x="878" d="M562.857 394.286c9.714 0 102.857-48.571 106.857-55.429 1.143-2.857 1.143-6.286 1.143-8.571 0-14.286-4.571-30.286-9.714-43.429-13.143-32-66.286-52.571-98.857-52.571-27.429 0-84 24-108.571 35.429-81.714 37.143-132.571 100.571-181.714 173.143-21.714 32-41.143 71.429-40.571 110.857v4.571c1.143 37.714 14.857 64.571 42.286 90.286 8.571 8 17.714 12.571 29.714 12.571 6.857 0 13.714-1.714 21.143-1.714 15.429 0 18.286-4.571 24-19.429 4-9.714 33.143-87.429 33.143-93.143 0-21.714-39.429-46.286-39.429-59.429 0-2.857 1.143-5.714 2.857-8.571 12.571-26.857 36.571-57.714 58.286-78.286 26.286-25.143 54.286-41.714 86.286-57.714 4-2.286 8-4 12.571-4 17.143 0 45.714 55.429 60.571 55.429zM446.857 91.428c197.714 0 358.857 161.143 358.857 358.857s-161.143 358.857-358.857 358.857-358.857-161.143-358.857-358.857c0-75.429 24-149.143 68.571-210.286l-45.143-133.143 138.286 44c58.286-38.286 127.429-59.429 197.143-59.429zM446.857 881.143c237.714 0 430.857-193.143 430.857-430.857s-193.143-430.857-430.857-430.857c-72.571 0-144.571 18.286-208.571 53.714l-238.286-76.571 77.714 231.429c-40.571 66.857-61.714 144-61.714 222.286 0 237.714 193.143 430.857 430.857 430.857z" />
<glyph unicode="&#xe91d;" glyph-name="phone" horiz-adv-x="805" d="M804.571 242.286c0-20.571-9.143-60.571-17.714-79.429-12-28-44-46.286-69.714-60.571-33.714-18.286-68-29.143-106.286-29.143-53.143 0-101.143 21.714-149.714 39.429-34.857 12.571-68.571 28-100 47.429-97.143 60-214.286 177.143-274.286 274.286-19.429 31.429-34.857 65.143-47.429 100-17.714 48.571-39.429 96.571-39.429 149.714 0 38.286 10.857 72.571 29.143 106.286 14.286 25.714 32.571 57.714 60.571 69.714 18.857 8.571 58.857 17.714 79.429 17.714 4 0 8 0 12-1.714 12-4 24.571-32 30.286-43.429 18.286-32.571 36-65.714 54.857-97.714 9.143-14.857 26.286-33.143 26.286-50.857 0-34.857-103.429-85.714-103.429-116.571 0-15.429 14.286-35.429 22.286-49.143 57.714-104 129.714-176 233.714-233.714 13.714-8 33.714-22.286 49.143-22.286 30.857 0 81.714 103.429 116.571 103.429 17.714 0 36-17.143 50.857-26.286 32-18.857 65.143-36.571 97.714-54.857 11.429-5.714 39.429-18.286 43.429-30.286 1.714-4 1.714-8 1.714-12z" />
<glyph unicode="&#xe91e;" glyph-name="envelope-o" d="M950.857 91.428v438.857c-12-13.714-25.143-26.286-39.429-37.714-81.714-62.857-164-126.857-243.429-193.143-42.857-36-96-80-155.429-80h-1.143c-59.429 0-112.571 44-155.429 80-79.429 66.286-161.714 130.286-243.429 193.143-14.286 11.429-27.429 24-39.429 37.714v-438.857c0-9.714 8.571-18.286 18.286-18.286h841.143c9.714 0 18.286 8.571 18.286 18.286zM950.857 692c0 14.286 3.429 39.429-18.286 39.429h-841.143c-9.714 0-18.286-8.571-18.286-18.286 0-65.143 32.571-121.714 84-162.286 76.571-60 153.143-120.571 229.143-181.143 30.286-24.571 85.143-77.143 125.143-77.143h1.143c40 0 94.857 52.571 125.143 77.143 76 60.571 152.571 121.143 229.143 181.143 37.143 29.143 84 92.571 84 141.143zM1024 713.143v-621.714c0-50.286-41.143-91.429-91.429-91.429h-841.143c-50.286 0-91.429 41.143-91.429 91.429v621.714c0 50.286 41.143 91.429 91.429 91.429h841.143c50.286 0 91.429-41.143 91.429-91.429z" />
<glyph unicode="&#xe91f;" glyph-name="location" d="M512 960c-176.732 0-320-143.268-320-320 0-320 320-704 320-704s320 384 320 704c0 176.732-143.27 320-320 320zM512 448c-106.040 0-192 85.96-192 192s85.96 192 192 192 192-85.96 192-192-85.96-192-192-192z" />
<glyph unicode="&#xe920;" glyph-name="modelo" d="M15.286 276.231h82.304c27.988-48.809 90.249-65.685 139.058-37.69 15.689 8.994 28.696 22.008 37.697 37.69h471.824c27.974-48.802 90.222-65.685 139.024-37.711 15.848 9.084 28.96 22.265 37.968 38.155 1.938 0.34 3.806 1.014 5.514 2l85.339 51.205c5.132 3.084 8.278 8.633 8.278 14.626v153.608c-0.042 2.014-0.451 4-1.195 5.875-0.188 0.507-0.396 0.986-0.632 1.479s-0.34 0.972-0.618 1.438l-46.371 77.297 12.89 25.752c4.209 8.438 0.785 18.689-7.646 22.897-1.521 0.757-3.139 1.285-4.813 1.563l-129.446 21.578c-204.354 33.495-414.063-0.861-597.048-97.819l-50.316-26.849-76.804-17.064c-52.212-11.501-96.416-46.010-120.231-93.875-1.195-2.361-1.827-4.966-1.84-7.612v-119.474c0-9.424 7.639-17.071 17.064-17.071zM248.469 300.129c-15.154-34.433-55.351-50.066-89.784-34.912s-50.066 55.351-34.912 89.784c15.154 34.433 55.351 50.066 89.784 34.912 24.766-10.897 40.732-35.419 40.683-62.477-0.028-9.403-2-18.703-5.785-27.307zM897.048 300.129c-15.154-34.433-55.351-50.066-89.784-34.912s-50.066 55.351-34.912 89.784c15.154 34.433 55.351 50.066 89.784 34.912 24.766-10.897 40.732-35.419 40.683-62.477-0.028-9.403-2-18.703-5.785-27.307zM988.159 446.91h-42.67l-25.606 34.141h68.276zM644.309 632.95c65.053 3.486 130.294-0.097 194.569-10.702l8.966-1.5-88.638-88.499h-129.308zM766.275 498.115c4.528 0 8.869 1.799 12.063 5l110.82 110.841 56.33-9.403-6.834-13.466c-2.604-5.223-2.361-11.417 0.653-16.418l35.773-59.483h-89.333c-9.431 0-17.071-7.646-17.071-17.071 0-3.695 1.201-7.285 3.417-10.237l51.205-68.276c3.222-4.299 8.278-6.827 13.654-6.827h51.205v-58.608l-51.205-30.773c0 1.347 0.083 2.695 0.083 4.042 0 56.559-45.85 102.41-102.403 102.41-56.559 0-102.41-45.85-102.41-102.41 0.035-5.111 0.472-10.216 1.299-15.258 0.083-0.597 0-1.215 0.139-1.813h-135.454l26.814 187.749zM609.473 630.561l-14.050-98.312h-324.029c105.23 54.441 220.064 87.832 338.079 98.312zM32.356 378.641h34.134v34.134h-31.627c19.967 34.766 53.643 59.511 92.784 68.171l77.262 17.168h385.561l-26.745-187.742h-276.79c0 0.597 0 1.208 0.139 1.806 0.82 5.049 1.25 10.147 1.299 15.265 0 56.553-45.85 102.403-102.41 102.403-56.553 0-102.403-45.85-102.403-102.403 0.035-5.118 0.472-10.216 1.299-15.265 0.083-0.597 0-1.208 0.132-1.806h-52.636zM441.982 463.98h68.276v-34.134h-68.276z" />
<glyph unicode="&#xe921;" glyph-name="anio" d="M335.496 622.647h136.646v-136.646h-136.646v136.646zM551.85 622.647h136.646v-136.646h-136.646v136.646zM768.205 622.647h136.646v-136.646h-136.646v136.646zM119.141 417.679h136.646v-136.646h-136.646v136.646zM335.496 417.679h136.646v-136.646h-136.646v136.646zM551.85 417.679h136.646v-136.646h-136.646v136.646zM768.205 417.679h136.646v-136.646h-136.646v136.646zM119.141 212.701h136.646v-136.634h-136.646v136.634zM335.496 212.701h136.646v-136.634h-136.646v136.634zM551.85 212.701h136.646v-136.634h-136.646v136.634zM955.667 923.774h-887.344c-37.722 0-68.323-30.591-68.323-68.313v-161.304h1023.99v161.304c0 37.722-30.601 68.313-68.323 68.313zM258.28 747.366c-28.292 0-51.241 22.949-51.241 51.241 0 28.302 22.949 51.241 51.241 51.241 28.302 0 51.231-22.929 51.231-51.241 0-28.29-22.929-51.241-51.231-51.241zM765.73 747.366c-28.302 0-51.253 22.949-51.253 51.241 0 28.302 22.949 51.241 51.253 51.241 28.292 0 51.221-22.929 51.221-51.241 0-28.29-22.929-51.241-51.221-51.241zM978.453 40.549c0-12.557-10.206-22.774-22.774-22.774h-887.346c-12.557 0-22.774 10.218-22.774 22.774v587.347h-45.549v-587.347c0-37.732 30.589-68.323 68.323-68.323h887.344c37.722 0 68.323 30.589 68.323 68.323v587.347h-45.537v-587.347h-0.010z" />
<glyph unicode="&#xe922;" glyph-name="asientos" d="M13.15 894.234c-0.030 0.108 0.026-0.11 0 0v0zM953.884 220.495c-33.25 29.17-74.982 42.154-117.48 36.582l-453.967-59.586-17.918 173.766c-8.314 95.992-30.65 190.028-66.392 279.501l-16.022 40.106c-12.596 31.532-36.574 56.084-66.156 69.686 13.034 28.942 14.928 61.702 4.844 92.306-0.096 0.294-0.202 0.586-0.318 0.874-25.23 63.156-85.462 104.864-153.452 106.26-16.64 0.328-32.336-6.868-42.916-19.782-10.582-12.916-14.574-29.672-10.956-45.974l150.728-657.733c1.808-8.118 9.85-13.24 17.98-11.432 8.12 1.808 13.238 9.856 11.432 17.98l-103.066 463.029c-2.040 9.188 0.212 18.632 6.176 25.912 5.966 7.28 14.796 11.3 24.19 11.152l43.18-0.886c8.916-0.182 17.602-1.55 25.888-3.966 0.406-0.142 0.816-0.27 1.228-0.376 28.366-8.668 51.856-29.732 63.238-58.224l16.022-40.106c34.66-86.764 56.316-177.956 64.366-271.045 0.006-0.082 0.014-0.164 0.022-0.248l18.014-174.722-28.61-3.754c-19.358 26.020-52.864 39.752-86.502 32.252-45.586-10.172-74.42-55.538-64.272-101.128 0.020-0.082 0.040-0.166 0.058-0.252l36.89-153.282c4.448-18.492 20.838-31.404 39.856-31.404h579.039c42.754 0 77.584 34.5 78.156 77.12h35.174c38.498 0 69.816 33.63 69.816 74.964 0.004 51.658-21.236 99.92-58.27 132.41zM187.096 769.898c-7.394 1.468-14.982 2.32-22.704 2.478l-43.18 0.886c-16.322 0.366-31.852-5.81-43.428-17.072l-35.25 144.708c-1.552 7.172 0.222 14.534 4.876 20.214 4.682 5.716 11.662 8.874 18.994 8.756 55.71-1.146 105.082-35.228 125.916-86.874 7.886-24.316 5.928-50.396-5.224-73.096zM249.97-33.872v0c-5.042 0-9.384 3.422-10.562 8.322l-36.858 153.15c-6.464 29.344 12.108 58.51 41.448 65.056 29.382 6.556 58.64-12.020 65.23-41.548l43.020-184.98h-102.278zM942.342 43.248h-169.902c-8.32 0-15.064-6.744-15.064-15.064s6.744-15.064 15.064-15.064h104.598c-0.57-26.006-21.888-46.992-48.028-46.992h-445.829l-10.928 46.992h330.091c8.32 0 15.064 6.744 15.064 15.064s-6.744 15.064-15.064 15.064h-337.099l-26.642 114.554c-0.258 1.158-0.554 2.298-0.858 3.434l502.579 65.966c33.782 4.438 67.056-5.992 93.688-29.354 30.514-26.772 48.016-66.78 48.016-109.764 0-24.724-17.802-44.836-39.686-44.836z" />
<glyph unicode="&#xe923;" glyph-name="carroceria" d="M823.215 335.782c-32.236 0-59.079-23.496-63.725-55.264h-177.515c-5.497 18.813-23.097 32.185-42.883 32.185h-118.313c-19.786 0-37.351-13.369-42.883-32.185h-148.78c-3.452 33.051-31.231 58.507-64.732 58.507-36.016 0-65.32-29.322-65.32-65.391 0-36.033 29.288-65.338 65.32-65.338 31.161 0 57.466 21.676 63.761 52.039h148.746c3.624-21.433 21.953-37.196 43.888-37.196h118.313c21.953 0 40.246 15.746 43.871 37.196h176.681c5.184-31.073 31.924-54.050 63.552-54.050 35.739 0 64.749 29.010 64.749 64.681 0.036 35.773-28.991 64.817-64.73 64.817zM823.215 226.070c-24.814 0-44.963 20.168-44.963 44.929 0 24.865 20.149 45.016 44.963 45.016 24.797 0 44.982-20.149 44.982-45.016-0.002-24.763-20.185-44.929-44.982-44.929zM399.364 280.535c4.388 7.577 12.433 12.381 21.416 12.381h118.313c8.93 0 16.994-4.804 21.399-12.381h-161.127zM539.109 242.976h-118.313c-10.89 0-20.375 7.232-23.634 17.392h165.601c-3.26-10.161-12.78-17.392-23.654-17.392zM164.385 319.221c25.108 0 45.571-20.445 45.571-45.571 0-25.108-20.462-45.517-45.571-45.517s-45.52 20.409-45.52 45.517c0 25.145 20.411 45.571 45.52 45.571zM912.657 379.652l111.343 11.462-1.751 10.404c-12.311 73.384-1.058 101.633-0.608 102.689l1.873 4.075-1.839 4.109c-1.508 3.347-39.485 82.402-263.765 82.402l-9.329-0.034c-19.854 18.137-114.151 94.956-289.272 94.956-128.544 0-269.262-42.155-418.25-125.318l-6.259-3.571 1.423-7.057c1.163-5.792 2.844-24.503-4.527-33.501-3.087-3.78-7.543-5.514-14.045-5.514h-8.047l-1.647-7.872c-9.9-47.617-15.208-95.564 12.815-123.584l2.895-2.931h79.626l-2.654 12.017c-1.301 5.965-1.941 11.462-1.941 16.925 0 41.946 34.16 76.089 76.123 76.089 41.946 0 76.106-34.143 76.106-76.089 0-5.566-0.659-11.236-1.941-16.838l-2.756-12.104h511.68l-2.775 12.104c-1.265 5.583-1.924 11.253-1.924 16.838 0 40.56 37.733 76.089 80.738 76.089 29.652 0 48.813-15.242 59.667-28.057 16.006-18.935 24.537-44.982 21.207-64.853l-2.165-12.834zM368.862 563.149h-259.481l40.212 18.85c0.885 0.382 88.454 40.82 207.53 63.744l11.756 2.272v-84.863h-0.017zM393.589 563.149v88.853l8.48 1.163c19.455 2.878 39.431 4.284 59.443 4.284 145.209 0 253.568-75.586 254.66-76.332l25.456-17.981-348.040 0.015z" />
<glyph unicode="&#xe924;" glyph-name="cilindros" horiz-adv-x="898" d="M510.114-64h-122.86c-34.375 4.493-68.923 8.009-103.106 13.699-77.352 12.786-152.659 32.092-217.554 79.078-43.836 31.745-66.813 73.718-66.558 129.481 0.913 194.815 0.548 389.647 0.21 584.48-0.082 43.553 15.425 79.453 47.306 108.832 39.425 36.329 87.024 57.361 137.435 72.147 135.161 39.617 272.788 44.813 411.648 25.343 71.535-10.046 141.161-27.169 204.942-62.713 63.133-35.27 97.206-85.498 96.184-161.645-2.466-187.974-0.776-375.994-0.913-563.996 0-11.324-0.21-22.831-2-33.955-9.754-60.996-51.142-98.074-102.905-121.006-49.316-21.863-101.919-37.699-154.403-50.905-41.398-10.438-84.859-12.859-127.426-18.84zM448.515 602.673c65.909 8.484 132.239 14.612 197.6 26.192 54.485 9.644 107.161 27.699 151.526 63.014 47.051 37.443 48.521 83.307 0.183 118.723-28.128 20.621-60.759 37.845-93.973 48.329-156.093 49.252-314.277 49.096-472.835 11.872-47.379-11.133-92.905-27.745-131.645-58.448-46.658-36.959-47.845-83.179-0.584-119.207 23.078-17.598 50.019-31.544 77.179-42.128 87.261-34 179.070-42.658 272.55-48.347zM64.165 452.9c0-31.58 2.402-61.078-0.53-90.037-5.014-49.425 18.502-80.85 58.622-103.38 15.133-8.493 30.713-16.74 46.996-22.521 155.673-55.297 314.414-57.261 474.625-24.987 53.663 10.785 106.677 25.955 149.773 61.316 16.53 13.58 34.43 34.384 37.197 53.955 5.726 40.448 1.726 82.266 1.726 121.243-31.242-16.439-60.548-35.48-92.375-48.101-109.873-43.571-225.29-51.489-341.839-45.909-118.028 5.644-233.363 22.53-334.195 98.421zM64.165 263.126c0-38.357 1.096-72.293-0.32-106.101-1.297-31.051 10.402-56.293 35.306-71.955 29.808-18.758 61.115-37.361 94.348-48.083 142.23-45.9 287.436-47.215 433.383-20.639 56.037 10.201 111.417 25.069 158.074 59.042 18.612 13.553 40.722 34.256 43.964 54.466 6.776 42.192 2.055 86.229 2.055 131.508-46.831-40.841-101.161-61.133-158.084-75.024-129.124-31.489-259.646-33.79-390.223-12.384-77.151 12.639-152.577 32.85-218.504 89.142zM64.165 637.394c0-35.233 0.968-66.95-0.292-98.631-1.132-28.311 8.676-52.101 31.224-66.932 28.183-18.539 57.672-37.388 89.325-47.973 149.463-49.964 302.012-51.142 455.392-20.786 57.425 11.379 113.946 27.562 159.408 66.667 14.612 12.539 29.608 31.964 31.918 49.809 4.877 37.672 1.489 76.412 1.489 115.983-186.924-127.837-610.672-113.672-768.454 1.845zM768.299 319.565c-0.256-17.151-15.242-31.215-32.694-30.703-16.977 0.502-29.854 13.534-30.137 30.466-0.265 18.439 12.539 31.461 30.959 31.516 17.818 0.064 32.137-14.009 31.872-31.279zM768.272 127.454c-0.274-17.032-15.781-31.827-32.713-31.224s-30.822 16.018-30.046 33.498c0.777 16.448 14.301 29.49 30.872 29.49 0.098 0 0.196 0 0.294-0.001h-0.015c17.461 0.018 31.882-14.475 31.608-31.763zM739.267 542.736c16.206-1.104 28.934-14.521 28.934-30.91 0-0.29-0.004-0.58-0.012-0.868l0.001 0.042c-0.621-17.434-15.206-30.512-33.133-29.708-18.512 0.822-30.594 14.228-29.525 32.758 1.032 17.881 15.196 29.927 33.735 28.685z" />
<glyph unicode="&#xe925;" glyph-name="color" d="M875.26 185.524c-33.624 0-60.978-27.354-60.978-60.978s27.354-60.98 60.978-60.98 60.98 27.356 60.98 60.98c-0.002 33.624-27.358 60.978-60.98 60.978zM875.262 93.69c-17.014 0-30.856 13.844-30.856 30.858s13.844 30.856 30.856 30.856c17.014 0 30.858-13.842 30.858-30.856 0-17.018-13.844-30.858-30.858-30.858zM680.652 223.13c-18.968 0-552.544 0-582.68 0-12.738 0-23.098-10.362-23.098-23.098v-156.412c0-12.738 10.362-23.098 23.098-23.098 18.532 0 550.606 0 581.676 0 13.024 0 23.624 10.596 23.624 23.624v156.368c-0.002 12.47-10.148 22.616-22.62 22.616zM274.218 50.644h-169.224v142.366h169.224v-142.366zM304.342 50.642v142.366h169.224v-142.366h-169.224zM673.148 50.644h-169.224v142.366h169.224v-142.366zM1023.578 163.132c-7.972 33.922 19.584-19.61-429.148 757.612-10.4 18.016-33.398 24.182-51.414 13.776l-225.674-130.288c-18.198-10.504-24.424-33.738-13.916-51.936l97.258-168.456c-56.668 32.718-112.84 65.148-168.816 97.464 0 0 0 0-0.002 0.002-17.97 10.374-41.038 4.192-51.412-13.78-1.318-2.284-123.326-213.604-130.294-225.674-10.364-17.954-4.476-41.32 13.918-51.934l168.442-97.25h-194.88c-20.756 0.002-37.64-16.884-37.64-37.638v-260.586c0-20.964 17.054-38.022 38.020-38.022h415.704c8.318 0 15.060 6.742 15.060 15.060s-6.744 15.062-15.060 15.062h-415.704c-4.356 0-7.898 3.544-7.898 7.9v260.586c0 4.144 3.372 7.516 7.516 7.516 7.496 0 818.174 0 822.318 0 19.422 0 39.448-4.15 58.2-12.894 46.19-29.002 47.16-34.388 62.674-58.404 5.916-10.792 10.49-22.516 13.426-35.008 1.902-8.098 10.024-13.118 18.106-11.216 8.098 1.904 13.12 10.010 11.216 18.108zM426.95 292.67l-87.098 50.284c8.93 15.464 62.206 107.74 71.184 123.294l146.552-84.612-51.364-88.966h-79.274zM313.77 358.012l-146.554 84.614 71.184 123.294 146.552-84.612-71.182-123.296zM541.28 292.67l42.602 73.786 127.802-73.786h-170.404zM760.012 292.67c-4.812 12.596 28.74-9.712-512.636 302.848-11.028 6.366-25.186 2.576-31.554-8.456l-78.206-135.456c-6.368-11.030-2.574-25.186 8.456-31.556 6.13-3.54 204.028-117.794 220.634-127.382h-73.946l-213.626 123.338c-3.796 2.188-5.028 7.080-2.89 10.784 0.412 0.712 129.852 224.91 130.294 225.676 2.074 3.588 6.678 4.82 10.268 2.754 45.132-26.054 479.284-276.712 627.942-362.55h-84.736zM640.95 642l84.612-146.552-85.608-49.426c-23.418 13.444-48.438 27.818-75.198 43.212l-47.1 81.582c17.884 10.326 105.41 60.858 123.294 71.184zM502.596 596.902l-84.612 146.55 123.292 71.186 84.614-146.554c-17.884-10.324-105.41-60.858-123.294-71.182zM740.742 469.154l69.95-121.16c-37.806 21.79-83.91 48.202-140.286 80.55l70.336 40.61zM856.752 321.336c0.002 4.544-1.148 9.114-3.544 13.264-10.106 17.504-279.446 484.016-289.358 501.182-6.368 11.030-20.522 14.824-31.556 8.456l-135.458-78.206c-11.054-6.384-14.838-20.496-8.454-31.552 6.598-11.428 117.48-203.484 124.274-215.25-22.376 12.892-40.852 23.55-59.806 34.492l-123.34 213.638c-2.182 3.78-0.888 8.604 2.892 10.788l225.674 130.292c3.61 2.084 8.202 0.83 10.268-2.752 13.73-23.78 345.568-598.546 362.572-627.992-31.326 18.090-23.040 13.878-74.164 43.64zM1012.382 104.068c-8.094 1.906-16.204-3.118-18.106-11.216-14.708-62.592-69.942-106.304-134.32-106.304h-335.95c-8.32 0-15.060-6.742-15.060-15.060s6.742-15.060 15.060-15.060h335.95c78.43 0 145.72 53.266 163.64 129.536 1.904 8.092-3.118 16.2-11.214 18.104z" />
<glyph unicode="&#xe926;" glyph-name="combustible" d="M608 768c0 17.674-14.326 32-32 32h-320c-17.674 0-32-14.326-32-32v-256c0-17.674 14.326-32 32-32h320c17.674 0 32 14.326 32 32v256zM544 544h-256v192h256v-192zM975.076 733.094l-127.618 64c-15.844 7.938-34.84 1.484-42.746-14.312-7.906-15.812-1.404-35.032 14.408-42.938l48.602-24.278c-1.3-3.48-2.982-7.16-2.982-11.098 0-41.664 31.26-76.852 63.26-90.102v-389.898c0-17.64-14.36-32-32-32s-32 14.36-32 32v256c0 77.262-64 141.898-128 156.766v195.234c0 70.578-55.894 127.532-126.472 127.532h-384c-70.578 0-129.528-56.954-129.528-127.532v-716.218l-46.312-23.156c-10.844-5.422-17.688-16.5-17.688-28.626v-96c0-17.672 15.856-32.468 33.528-32.468h704c17.672 0 30.472 14.796 30.472 32.468v96c0 12.126-6.844 23.204-17.688 28.626l-46.312 23.156v454.32c32-13.25 64-48.438 64-90.102v-256c0-52.938 43.062-96 96-96s96 43.062 96 96v480c0 12.126-6.080 23.204-16.924 28.626zM736 0h-640v44.688l46.312 23.156c10.844 5.422 17.688 16.5 17.688 28.626v736c0 35.296 30.23 63.53 65.528 63.53h384c35.296 0 62.472-28.234 62.472-63.532v-736c0-12.126 6.844-23.204 17.688-28.626l46.312-23.154v-44.688z" />
<glyph unicode="&#xe927;" glyph-name="eje" horiz-adv-x="2566" d="M1984.952 540.649v-192.479h-19.408c-97.618 0-195.236-0.422-292.832 0.222-30.101 0.2-54.734-8.893-77.054-29.59-72.252-66.961-155.286-113.958-253.971-128.831-109.645-16.54-208.975 12.383-299.813 72.897-27.42 18.813-51.355 37.891-73.854 58.512l0.49-0.443c-20.764 18.541-43.574 27.478-71.14 27.367-98.73-0.378-197.459-0.133-296.167-0.133h-19.319v192.479h19.297q141.347-0.178 282.761-0.422c25.299 0 46.419 8.070 64.471 26.255 51.132 51.332 110.179 92.438 171.871 129.498 15.829 9.515 36.904 13.806 55.69 14.228 71.363 1.623 142.77 0.645 214.177 0.667 23.521 0 45.396-5.847 64.471-19.675 46.352-33.569 96.618-63.204 137.346-102.642 38.905-37.682 79.322-50.954 131.721-48.909 80.189 3.335 160.6 0.889 240.899 0.889zM272.335-60.954v1020.865h45.73q66.094 0 132.188 0c37.793 0 52.155-14.428 52.155-52.599q0-445.851 0-891.745c0-12.828 0.356-25.655-0.111-38.46-0.778-21.876-15.562-39.75-37.126-40.016-62.982-0.956-126.008-0.178-188.967 0-1.067-0.067-2.023 0.934-3.868 1.956zM312.885 767.987c48.776 24.766 95.906 48.553 142.792 72.786 3.398 2.293 5.758 5.903 6.349 10.082l0.009 0.077c0.911 9.204 0.311 18.541 0.311 30.012-7.981-3.579-14.028-6.002-19.808-8.893-35.326-17.785-70.585-35.815-105.888-53.689-28.212-14.295-28.234-14.25-23.765-50.376zM311.239 617.748c6.225 2.757 9.737 4.135 13.072 5.825 37.26 18.741 74.453 37.638 111.757 56.29 29.056 14.517 29.123 14.384 24.877 49.131-3.553-0.772-6.637-1.751-9.591-2.98l0.365 0.135c-43.151-21.92-86.413-43.64-129.12-66.405-5.336-2.846-9.137-10.938-10.938-17.363s-0.422-14.25-0.422-24.632zM313.351 317.624c4.646 2.090 9.137 3.913 13.45 6.091 36.17 18.319 71.541 38.483 108.734 54.4 22.943 9.804 30.924 23.543 26.678 46.686-0.543 1.375-1.201 2.562-1.989 3.649l0.033-0.047c-3.357-1.334-6.981-2.423-10.315-4.113q-57.957-29.345-115.826-58.869c-26.389-13.672-26.944-15.14-20.764-47.82zM312.907 466.997c42.751 21.742 83.835 42.573 124.874 63.493 27.878 14.25 27.834 14.317 22.898 48.509-5.224-2.223-10.204-4.446-14.984-6.669q-54.467-27.367-108.934-54.867c-28.501-14.517-28.501-14.473-23.854-50.487zM461.324 279.23c-49.554-25.121-97.151-49.154-144.504-73.586-2.956-2.128-4.958-5.422-5.331-9.195l-0.004-0.053c-0.711-9.315-0.245-18.697-0.245-30.012 6.047 2.623 10.093 4.113 13.917 6.047q55.245 27.789 110.446 55.578c28.656 14.584 28.656 14.606 25.722 51.199zM462.435 129.302c-45.53-23.143-87.547-44.463-129.542-65.872-23.943-12.205-27.056-20.008-18.652-47.131 47.153 23.877 94.239 47.575 141.103 71.696 3.446 2.153 5.898 5.625 6.656 9.692l0.014 0.090c1.045 9.182 0.422 18.563 0.422 31.502zM231.073 959.133v-189.723q0-401.632 0-803.242c0-34.792 4.446-29.39-28.59-29.59-51.332-0.289-102.642 0-153.975 0-33.503 0-48.42 14.517-48.42 47.442q0 463.547 0 927.049c0 34.103 15.006 48.909 48.909 48.909q82.034 0 164.023 0c5.224-0.044 10.649-0.511 18.052-0.845zM41.484 128.213c-4.446-36.193-4.446-36.104 23.81-50.243q55.69-28.056 111.513-56.223c4.224-2.112 8.715-3.646 12.294-5.113 8.692 27.567-1.912 43.418-27.456 50.888-4.713 1.401-8.893 4.446-13.339 6.669zM42.284 278.008c-6.669-33.347-5.669-35.014 20.675-48.153 24.899-12.405 49.532-25.322 74.386-37.793 17.118-8.626 34.392-16.963 52.222-25.722 4.446 35.57 4.446 35.57-23.521 49.709-26.811 13.583-53.578 27.233-80.411 40.728-14.273 7.114-28.656 14.028-43.351 21.231zM189.523 316.268c4.291 35.948 4.291 35.904-24.944 50.599-8.893 4.446-17.785 9.248-26.678 13.761-31.68 16.007-63.382 31.947-99.219 50.021 5.047-16.562-7.737-33.058 9.537-42.24 46.086-24.388 92.949-47.553 141.303-72.141zM189.678 767.743c3.668 35.704 3.668 35.704-24.166 50.043-13.872 7.136-27.7 14.339-41.595 21.387-27.167 13.739-54.356 27.389-82.034 41.328-5.58-35.17-4.913-36.482 24.166-50.132q5.269-2.468 10.493-5.135zM189.411 617.525c4.446 36.015 4.446 35.881-23.721 49.865-21.92 10.893-43.618 22.231-65.449 33.347-19.23 9.737-38.483 19.341-58.135 29.19-6.18-33.48-5.158-35.57 22.231-49.042 5.002-2.445 9.871-5.135 14.828-7.625 36.193-18.363 72.341-36.593 110.245-55.734zM41.528 579.732c-5.024-35.17-4.913-35.17 23.365-49.643 12.361-6.291 24.677-12.672 37.060-18.941 28.901-14.628 57.935-29.234 89.126-44.952 0 11.382 0.8 19.719-0.289 27.767-0.667 4.78-3.157 11.427-6.847 13.339-46.686 24.277-93.75 47.864-142.414 72.474zM2294.235 959.956v-1023.511h-180.986c-33.792 0-49.198 15.028-49.198 48.776q0 462.613 0 925.226c0 34.481 15.562 49.509 50.198 49.487q81.122 0 162.289 0zM2252.973 768.588c6.136 33.347 5.424 35.126-20.875 48.509-15.829 8.048-31.746 15.918-47.62 23.921l-80.455 40.661c0-7.648 0.645-12.561 0-17.229-2.512-15.562 3.668-24.166 18.23-30.168 17.407-7.159 33.703-16.985 50.554-25.499 26.455-13.383 53.089-26.633 80.166-40.194zM2105.579 730.328c-4.268-35.77-4.246-35.748 24.855-50.421 13.339-6.669 26.678-13.783 40.016-20.542 27.189-13.65 54.422-27.189 81.989-40.972 7.025 32.391 5.847 34.837-20.386 47.975-18.897 9.471-37.638 19.275-56.49 28.901-23.032 11.583-46.175 23.121-69.984 35.059zM2104.023 430.204c0-6.981 0.534-10.871 0-14.584-2.935-17.252 4.068-26.5 20.275-33.903 36.326-16.651 71.474-35.859 107.111-53.978 7.136-3.624 14.384-7.070 22.231-10.916 4.446 35.348 4.446 35.392-23.432 49.732-14.806 7.603-29.723 15.028-44.596 22.543zM2104.023 279.875c0-7.692 0.556-11.671 0-15.429-2.846-16.696 3.357-26.678 19.586-33.058 17.541-6.892 33.992-16.607 50.888-25.166 26.1-13.205 52.155-26.455 79.588-40.394 0.534 7.070 0.445 11.538 1.245 15.851 2.779 15.184-2.223 24.455-17.34 30.746-19.497 8.003-37.927 18.674-56.779 28.256-24.855 12.494-49.509 25.055-77.187 39.172zM2253.596 466.997c4.602 36.037 4.602 35.993-23.988 50.376q-54.422 27.411-108.934 54.867c-4.758 2.401-9.693 4.446-14.962 6.825-4.958-34.325-4.98-34.392 22.921-48.598 41.039-20.942 82.101-41.773 124.874-63.493zM2104.023 128.835c0-7.514 0.534-11.471 0-15.206-2.801-16.562 3.557-25.677 19.408-32.791 33.903-15.273 66.694-33.103 99.863-49.909 10.049-5.091 20.008-10.226 30.924-15.807 3.001 36.259 3.001 36.237-25.611 50.91-10.382 5.336-20.697 10.76-31.124 16.007-30.257 15.251-60.403 30.324-93.461 46.797zM2335.363 959.822c66.361 0 129.92 0.578 193.413-0.311 21.92-0.311 36.526-17.385 37.46-39.527 0.356-8.359 0-16.74 0-25.099q0-454.365 0-908.708c0-35.726-14.006-49.687-49.487-49.687-54.111 0-108.245 0.778-162.289-0.467-17.518-0.4-19.497 6.314-19.475 21.253q0.6 479.42 0.378 958.906zM2525.019 127.546c-6.403-2.89-11.427-4.935-16.251-7.381q-54.289-27.456-108.511-55c-28.434-14.384-29.345-16.184-22.587-49.376 41.35 20.831 82.367 41.55 123.429 62.248 28.123 14.050 28.167 13.984 23.921 49.509zM2524.508 277.719c-5.758-2.557-11.294-4.713-16.585-7.381q-55.156-27.811-110.223-55.823c-25.077-12.761-27.367-18.274-19.497-48.064 41.328 20.964 82.256 41.951 123.451 62.581 28.523 14.273 28.701 14.184 22.854 48.753zM2524.663 428.714c-5.802-2.757-11.116-5.158-16.518-7.848-36.259-18.408-72.43-36.993-108.756-55.289-27.256-13.717-28.501-16.029-21.52-48.731 41.439 21.031 82.434 42.017 123.607 62.648 28.501 14.295 28.612 14.072 23.187 49.22zM2375.357 767.209c44.463 22.454 85.524 43.462 126.852 63.871 26.678 13.161 28.278 15.829 21.942 49.376-47.931-24.321-95.595-48.287-142.814-72.763-3.023-1.556-5.358-6.825-5.713-10.604-0.845-8.715-0.267-17.563-0.267-29.879zM2377.18 617.481c48.909 24.855 96.395 48.909 143.704 73.364 2.69 1.378 4.958 5.98 5.202 9.248 0.689 9.337 0.245 18.741 0.245 29.679-5.158-2.068-8.759-3.179-12.072-4.869-37.793-19.075-74.697-40.016-113.38-56.69-22.009-9.493-29.323-22.498-25.366-44.463 0.133-1.067 0.511-2.112 1.667-6.269zM2377.647 467.13c42.818 21.787 84.768 43.151 126.719 64.471 24.455 12.427 27.211 18.608 19.075 47.664-40.728-20.72-80.411-43.151-122.006-61.159-23.543-10.204-30.301-24.299-25.722-47.219 0.618-1.462 1.265-2.696 2-3.87l-0.066 0.113z" />
<glyph unicode="&#xe928;" glyph-name="kilometraje" d="M494.827 723.073v0h-0.012v122.087h34.357v-122.087h-0.037v-0.025l-34.308 0.025zM80.845 311.899l120.246 21.215-3.021 17.033-2.947 16.745h-0.012v0.025l-120.24-21.191 5.974-33.828zM840.566 614.111l-61.782-35.663 9.53-16.527 7.634-13.187 105.73 61.038-17.179 29.736-43.935-25.397zM307.068 161.012l-13.536 11.356-78.488-93.504 26.323-22.084 78.478 93.529-12.776 10.704zM884.092 169.418l17.156 29.756-105.706 61.044-9.486-16.406-7.671-13.314v-0.025l105.706-61.056zM75.015 464.812l120.232-21.182 5.11 29.053 0.828 4.76v0.025l-120.234 21.219-5.935-33.875zM942.297 497.767l-120.252-21.189 4.421-25.049 1.547-8.746v-0.025l120.252 21.189-5.968 33.82zM386.995 698.175v-0.025l32.262 11.76-41.74 114.742-32.274-11.766 5.95-16.357 35.802-98.354zM138.602 170.193l105.718 61.054-17.166 29.732-105.737-61.031 17.172-29.742h0.012v-0.012zM702.639 149.752l78.476-93.553 26.288 22.108-78.453 93.531-26.31-22.086zM121.865 610.518v0l105.73-61.062 17.16 29.761-105.73 61.038-17.16-29.736zM948.095 344.856v0l-120.227 21.213-5.968-33.828 120.24-21.213 5.956 33.828zM242.008 753.469l-26.3-22.078 78.484-93.523 26.298 22.090-78.482 93.51zM636.147 796.077l-31.481-86.449 0.025-0.025 32.268-11.711 41.764 114.713-32.281 11.736-10.295-28.264zM722.935 642.888l6.669-5.582 78.488 93.541-26.323 22.053-78.476-93.535 19.641-16.478zM511.999 904.773c-282.307 0-511.999-229.674-511.999-512.005 0-162.629 76.303-307.671 194.904-401.539h51.832c-130.163 86.281-216.203 234.027-216.203 401.539 0 265.488 215.98 481.466 481.464 481.466 265.492 0 481.472-215.978 481.472-481.466 0-167.512-86.040-315.258-216.209-401.539h51.838c118.584 93.868 194.898 238.91 194.898 401.539 0.004 282.321-229.688 512.005-511.997 512.005zM412.055 168.551c10.74 0 16.097 10.702 16.097 32.084 0 22.133-5.249 33.223-15.764 33.223-11.084 0-16.635-11.247-16.635-33.766 0-21.033 5.443-31.541 16.302-31.541zM366.16 271.815h91.060v-142.454h-91.060v142.454zM386.65 199.669c0-12.517 2.15-22.059 6.469-28.679 4.313-6.608 10.317-9.929 18.025-9.929 8.239 0 14.642 3.479 19.233 10.389 4.59 6.945 6.892 16.962 6.892 30.116 0 26.541-8.13 39.818-24.385 39.818-8.498 0-14.981-3.491-19.48-10.571-4.507-7.031-6.753-17.42-6.753-31.144zM469.186 271.815h89.427v-142.454h-89.427v142.454zM492.676 164.274c3.552-2.126 8.909-3.213 16.093-3.213 8.523 0 15.245 2.295 20.126 6.886s7.346 10.655 7.346 18.17c0 7.25-2.271 12.974-6.814 17.156-4.564 4.155-10.992 6.258-19.304 6.258-2.030 0-4.221-0.072-6.608-0.217v22.76h29.2v8.022h-37.613v-38.978c5.968 0.435 10.033 0.652 12.19 0.652 6.41 0 11.319-1.425 14.744-4.276 3.432-2.853 5.159-6.839 5.159-11.912 0-5.148-1.68-9.253-5.050-12.371-3.364-3.117-7.781-4.662-13.271-4.662-5.496 0-10.886 1.715-16.208 5.146v-9.422h0.010zM567.88 271.815h89.942v-142.454h-89.942v142.454zM590.24 199.669c0-12.517 2.152-22.059 6.475-28.679 4.313-6.608 10.319-9.929 18.025-9.929 8.239 0 14.654 3.479 19.233 10.389 4.59 6.945 6.886 16.962 6.886 30.116 0 26.541-8.143 39.818-24.393 39.818-8.49 0-14.979-3.491-19.484-10.571-4.492-7.031-6.741-17.42-6.741-31.144zM615.659 168.551c10.728 0 16.104 10.702 16.104 32.084 0 22.133-5.255 33.223-15.766 33.223-11.090 0-16.635-11.247-16.635-33.766-0.012-21.033 5.424-31.541 16.298-31.541zM526.935 345.363c-2.15 0-4.035-0.775-6.015-1.185l-234.65 207.016 208.732-234.945c-0.139-1.183-0.732-2.248-0.732-3.419 0-18.086 14.601-32.702 32.665-32.702 17.953 0 32.546 14.616 32.546 32.702 0.025 17.916-14.591 32.534-32.546 32.534z" />
<glyph unicode="&#xe929;" glyph-name="motor" d="M764.43 28l137.57 137.57v42.43h62v-60h60v420h-60v-60h-62v102.43l-137.57 137.57h-42.43v62h60v60h-180v-60h60v-62h-180v62h60v60h-180v-60h60v-62h-182v62h62v60h-182v-60h60v-62h-42.43l-137.57-137.57v-444.859l137.57-137.57zM964 448v-180h-62v180zM180 448h122v-90c0-33.742 11.203-64.914 30.078-90h-62.078c-49.625 0-90 40.375-90 90zM362 358v90h120v-90c0-33.742 11.203-64.914 30.078-90h-60.078c-49.625 0-90 40.375-90 90zM542 358v90h120v-90c0-33.742 11.203-64.914 30.078-90h-60.078c-49.625 0-90 40.375-90 90zM722 358v90h120v-180h-30c-49.625 0-90 40.375-90 90zM162.43 688h577.141l102.43-102.43v-77.57h-782v77.57zM60 448h60v-90c0-82.711 67.289-150 150-150h572v-17.57l-102.43-102.43h-577.141l-102.43 102.43z" />
<glyph unicode="&#xe92a;" glyph-name="pasajeros" d="M886.766 508.974c-3.74 3.722-8.882 5.86-14.14 5.86-5.28 0-10.42-2.138-14.14-5.86-3.74-3.72-5.878-8.88-5.878-14.14s2.138-10.42 5.878-14.138c3.702-3.72 8.862-5.862 14.14-5.862 5.26 0 10.42 2.14 14.14 5.862 3.718 3.718 5.86 8.878 5.86 14.138s-2.14 10.42-5.86 14.14zM953.494 918.678c-13.422 20.44-34 34.43-57.944 39.39-23.934 4.958-48.384 0.304-68.822-13.12-20.44-13.422-34.43-34-39.39-57.944l-2.128-10.274c-15.528 45.606-58.75 78.516-109.542 78.516-63.804 0-115.71-51.908-115.71-115.71v-17.402c0-33.292 14.152-63.326 36.732-84.454-8.308-3.23-16.348-7.332-23.976-12.342-28.428-18.668-47.884-47.288-54.812-80.708l-16.318-81.3-37.5-37.714h-156.11c-35.684 0-64.714-29.032-64.714-64.714 0-8.75 1.754-17.094 4.916-24.714h-16.212c-37.584 0-70.454-25.402-79.93-61.776l-23.606-90.596c-2.786-10.69 3.622-21.612 14.31-24.396 1.692-0.442 3.386-0.652 5.056-0.652 8.882 0.002 16.996 5.964 19.34 14.962l23.606 90.596c4.888 18.76 21.842 31.862 41.224 31.862h292.982c5.34 0 10.458 2.134 14.212 5.93l101.248 102.284c7.772 7.85 7.708 20.514-0.142 28.284-7.852 7.774-20.514 7.708-28.284-0.142l-95.378-96.354h-208.628c-13.626 0-24.714 11.088-24.714 24.714s11.088 24.714 24.714 24.714h164.428c5.324 0 10.428 2.124 14.182 5.898l114.482 115.14c7.79 7.832 7.752 20.496-0.080 28.286-7.834 7.786-20.496 7.754-28.284-0.082l-20.006-20.122 4.396 21.898c4.732 22.838 18.078 42.466 37.576 55.27 19.496 12.802 42.812 17.248 65.64 12.512 22.838-4.732 42.466-18.076 55.268-37.57 12.802-19.496 17.246-42.808 12.514-65.646-0.032-0.15-0.042-0.298-0.070-0.448l-50.14-241.944c-5.744-27.71-30.454-47.824-58.752-47.824h-284.324c-46.894 0-86.174-36.118-91.018-81.98-0.388-0.91-0.736-1.844-0.992-2.83l-61.26-235.122c-2.308-8.862-10.318-15.050-19.476-15.050h-46.45c-6.282 0-12.086 2.85-15.926 7.82-3.842 4.968-5.134 11.304-3.552 17.38l33.402 128.202c2.786 10.69-3.624 21.612-14.31 24.396-10.692 2.792-21.612-3.622-24.396-14.31l-33.402-128.202c-4.73-18.156-0.864-37.084 10.61-51.928 11.472-14.846 28.814-23.36 47.576-23.36h46.448c27.362 0 51.288 18.492 58.184 44.966l46.392 178.060c0.918-1.020 1.852-2.030 2.82-3.018 17.528-17.866 41.864-28.112 66.766-28.112h97.356l-68.398-164.208c-2.57-6.172-1.886-13.22 1.822-18.786 3.708-5.562 9.954-8.904 16.64-8.904h308.526c6.688 0 12.932 3.342 16.64 8.904 3.708 5.564 4.392 12.614 1.822 18.786l-68.398 164.208h100.258c43.18 0 80.876 30.688 89.636 72.966l43.782 211.266c2.242 10.816-4.708 21.4-15.526 23.642-10.808 2.23-21.4-4.708-23.642-15.526l-43.782-211.268c-4.932-23.804-26.158-41.082-50.47-41.082h-406.268c-14.23 0-28.158 5.876-38.212 16.126-9.762 9.95-14.994 22.886-14.736 36.43 0.534 27.864 23.652 50.534 51.536 50.534h284.326c47.166 0 88.346 33.522 97.918 79.706l109.458 528.198c2.792 13.482 10.67 25.068 22.178 32.626 11.51 7.554 25.274 10.176 38.752 7.384 13.482-2.792 25.068-10.67 32.626-22.178 7.556-11.508 10.18-25.272 7.384-38.752l-59.426-286.76c-2.242-10.816 4.708-21.4 15.526-23.642 10.812-2.242 21.402 4.708 23.642 15.526l59.426 286.76c4.96 23.944 0.302 48.384-13.122 68.824zM598.896 127.9l63.272-151.898h-248.534l63.272 151.898h121.99zM675.666 746.426c-41.748 0-75.71 33.964-75.71 75.71v17.402c0 41.748 33.964 75.712 75.71 75.712 41.748 0 75.71-33.964 75.71-75.712v-17.402c0.002-41.746-33.962-75.71-75.71-75.71zM746.898 691.852c-6.618 9.478-14.348 17.916-23.030 25.13 12.292 5.658 23.434 13.392 32.958 22.776l-9.928-47.906zM143.894 223.718c-3.718 3.718-8.878 5.86-14.14 5.86-5.26 0-10.42-2.14-14.138-5.86-3.72-3.74-5.862-8.88-5.862-14.14 0-5.28 2.14-10.42 5.862-14.14 3.718-3.738 8.878-5.86 14.138-5.86 5.262 0 10.4 2.122 14.14 5.86 3.72 3.702 5.86 8.862 5.86 14.14 0 5.26-2.138 10.42-5.86 14.14z" />
<glyph unicode="&#xe92b;" glyph-name="potencia" d="M1024 810c0 82.711-67.289 150-150 150s-150-67.289-150-150c0-72.438 51.617-133.047 120-146.984v-185.016h-302v185.016c68.383 13.938 120 74.547 120 146.984 0 82.711-67.289 150-150 150s-150-67.289-150-150c0-72.438 51.617-133.047 120-146.984v-185.016h-302v185.016c68.383 13.938 120 74.547 120 146.984 0 82.711-67.289 150-150 150s-150-67.289-150-150c0-72.438 51.617-133.047 120-146.984v-245.016h362v-185.016c-68.383-13.938-120-74.547-120-146.984 0-82.711 67.289-150 150-150s150 67.289 150 150c0 72.438-51.617 133.047-120 146.984v185.016h302v-185.016c-68.383-13.938-120-74.547-120-146.984 0-82.711 67.289-150 150-150s150 67.289 150 150c0 72.438-51.617 133.047-120 146.984v430.031c68.383 13.938 120 74.547 120 146.984zM422 810c0 49.625 40.375 90 90 90s90-40.375 90-90-40.375-90-90-90-90 40.375-90 90zM60 810c0 49.625 40.375 90 90 90s90-40.375 90-90-40.375-90-90-90-90 40.375-90 90zM602 86c0-49.625-40.375-90-90-90s-90 40.375-90 90 40.375 90 90 90 90-40.375 90-90zM784 810c0 49.625 40.375 90 90 90s90-40.375 90-90-40.375-90-90-90-90 40.375-90 90zM964 86c0-49.625-40.375-90-90-90s-90 40.375-90 90 40.375 90 90 90 90-40.375 90-90z" />
<glyph unicode="&#xe92c;" glyph-name="ruedas" d="M512.004 960c-282.319 0-512.004-229.681-512.004-512s229.685-512 512.004-512c282.315 0 512 229.681 512 512s-229.689 512-512 512zM512.004 84.355c-200.84 0-363.649 162.806-363.649 363.645s162.81 363.645 363.649 363.645c200.832 0 363.645-162.806 363.645-363.645s-162.818-363.645-363.645-363.645zM512.004 764.567c-174.561 0-316.571-142.010-316.571-316.567s142.014-316.567 316.571-316.567c174.557 0 316.567 142.010 316.567 316.567s-142.014 316.567-316.567 316.567zM788.031 468.184h-153.601c-3.138 19.411-10.806 37.314-21.865 52.618l108.438 108.438c38.066-43.835 62.575-99.692 67.028-161.056zM531.866 724.055c61.328-4.373 117.164-28.789 161.023-66.747l-108.414-108.418c-15.304 11.055-33.202 18.719-52.61 21.857v153.307zM492.138 724.055v-153.303c-19.407-3.138-37.31-10.802-52.614-21.861l-108.418 108.414c43.86 37.958 99.704 62.378 161.031 66.751zM302.989 629.235l108.442-108.438c-11.059-15.3-18.723-33.202-21.861-52.61h-153.601c4.454 61.36 28.962 117.212 67.020 161.048zM235.925 428.46h153.649c3.134-19.407 10.802-37.31 21.861-52.614l-108.74-108.74c-38.026 43.94-62.462 99.901-66.771 161.353zM492.138 171.945c-61.493 4.385-117.462 28.918-161.377 67.048l108.764 108.764c15.304-11.059 33.206-18.723 52.614-21.861v-153.951zM492.138 366.762v-0.29c-8.573 2.084-16.619 5.471-23.949 9.953l0.189 0.189c-11.466 6.992-21.097 16.623-28.089 28.093l-0.185-0.185c-4.482 7.33-7.869 15.372-9.953 23.945h0.286c-1.549 6.377-2.458 13.007-2.458 19.862s0.913 13.485 2.458 19.862h-0.286c2.084 8.569 5.467 16.611 9.953 23.941l0.185-0.185c6.992 11.466 16.627 21.101 28.089 28.089l-0.189 0.189c7.33 4.482 15.376 7.873 23.949 9.953v-0.29c6.381 1.549 13.007 2.462 19.866 2.462s13.485-0.913 19.866-2.462v0.29c8.573-2.084 16.615-5.467 23.941-9.949l-0.189-0.189c11.47-6.988 21.101-16.623 28.093-28.089l0.185 0.185c4.486-7.33 7.873-15.376 9.957-23.949h-0.286c1.549-6.377 2.458-13.007 2.458-19.862s-0.913-13.485-2.458-19.862h0.286c-2.084-8.573-5.467-16.619-9.957-23.949l-0.185 0.185c-6.992-11.466-16.627-21.097-28.093-28.089l0.189-0.185c-7.326-4.482-15.368-7.869-23.941-9.953v0.29c-6.381-1.549-13.007-2.462-19.866-2.462s-13.485 0.909-19.866 2.462zM531.866 171.945v153.951c19.407 3.138 37.306 10.802 52.61 21.857l108.76-108.76c-43.912-38.131-99.881-62.663-161.369-67.048zM721.304 267.107l-108.736 108.736c11.059 15.304 18.723 33.206 21.865 52.618h153.645c-4.313-61.452-28.745-117.413-66.775-161.353z" />
<glyph unicode="&#xe92d;" glyph-name="serie" d="M0 817.778h68.267v-739.556h-68.267v739.556zM102.4 817.778h45.511v-546.133h-45.511v546.133zM227.556 817.778h45.511v-546.133h-45.511v546.133zM307.2 817.778h68.267v-546.133h-68.267v546.133zM170.667 817.778h34.133v-546.133h-34.133v546.133zM398.222 817.778h34.133v-546.133h-34.133v546.133zM629.566 817.778h-72.055v-546.133h136.533v546.133h-43.61zM455.111 817.778h56.889v-546.133h-56.889v546.133zM876.089 817.778h68.267v-546.133h-68.267v546.133zM800.233 817.778h-60.677v-546.133h102.4v546.133h-30.345zM967.111 817.778h56.889v-739.556h-56.889v739.556zM187.653 139.309c0-38.945-14.45-60.439-39.822-60.439-22.381 0-37.535 20.969-37.888 58.857 0 38.412 16.566 59.551 39.822 59.551 24.144 0.013 37.888-21.491 37.888-57.968zM125.452 137.557c0-29.786 9.159-46.694 23.256-46.694 15.86 0 23.438 18.501 23.438 47.753 0 28.193-7.225 46.694-23.256 46.694-13.563 0-23.438-16.566-23.438-47.753zM237.386 180.895h-0.353l-19.911-10.74-3.003 11.799 25.019 13.402h13.222v-114.541h-14.973v100.079zM295.936 80.816v9.512l12.151 11.809c29.253 27.842 42.463 42.643 42.643 59.916 0 11.629-5.644 22.381-22.732 22.381-10.399 0-19.034-5.279-24.325-9.695l-4.938 10.923c7.931 6.701 19.217 11.629 32.438 11.629 24.666 0 35.067-16.908 35.067-33.303 0-21.139-15.337-38.241-39.481-61.497l-9.171-8.465v-0.341h51.451v-12.869h-73.104zM391.827 98.612c4.404-2.821 14.62-7.225 25.372-7.225 19.923 0 26.089 12.675 25.908 22.198-0.182 16.031-14.632 22.915-29.616 22.915h-8.635v11.617h8.635c11.276 0 25.555 5.826 25.555 19.387 0 9.159-5.814 17.261-20.093 17.261-9.171 0-17.977-4.051-22.915-7.578l-4.039 11.276c5.985 4.414 17.624 8.806 29.957 8.806 22.551 0 32.78-13.392 32.78-27.307 0-11.809-7.054-21.857-21.151-26.965v-0.341c14.097-2.821 25.555-13.402 25.555-29.435 0-18.318-14.279-34.361-41.768-34.361-12.857 0-24.133 4.039-29.776 7.749l4.232 12.004zM528.259 80.816v31.187h-53.215v10.228l51.098 73.136h16.749v-71.201h16.031v-12.151h-16.031v-31.187l-14.632-0.012zM528.259 124.155v38.241c0 5.985 0.182 11.98 0.535 17.977h-0.535c-3.527-6.701-6.348-11.629-9.512-16.919l-28.023-38.945v-0.353h37.535zM640.91 182.305h-43.702l-4.414-29.435c2.64 0.353 5.108 0.716 9.341 0.716 8.806 0 17.624-1.946 24.666-6.167 8.988-5.108 16.384-14.973 16.384-29.435 0-22.381-17.795-39.116-42.643-39.116-12.516 0-23.073 3.527-28.547 7.043l3.88 11.809c4.755-2.821 14.097-6.348 24.486-6.348 14.632 0 27.148 9.512 27.148 24.849-0.182 14.803-10.046 25.361-32.95 25.361-6.519 0-11.629-0.706-15.86-1.228l7.396 54.988h54.796v-13.039h0.020zM730.112 184.422c-3.162 0.182-7.225 0-11.629-0.706-24.325-4.051-37.194-21.857-39.822-40.709h0.524c5.461 7.237 14.973 13.222 27.671 13.222 20.264 0 34.543-14.632 34.543-37.011 0-20.969-14.279-40.346-38.070-40.346-24.496 0-40.538 19.024-40.538 48.811 0 22.551 8.112 40.346 19.387 51.622 9.512 9.341 22.198 15.156 36.66 16.919 4.575 0.706 8.453 0.877 11.264 0.877v-12.675h0.010zM725.708 118.341c0 16.384-9.341 26.259-23.609 26.259-9.341 0-17.977-5.814-22.198-14.097-1.069-1.752-1.764-4.039-1.764-6.872 0.353-18.854 8.988-32.78 25.202-32.78 13.381 0 22.369 11.105 22.369 27.489zM831.294 195.356v-10.217l-49.868-104.323h-16.031l49.687 101.319v0.353h-56.036v12.869l72.247-0.002zM847.735 109.886c0 14.438 8.635 24.666 22.732 30.651l-0.182 0.535c-12.686 5.985-18.159 15.86-18.159 25.725 0 18.159 15.337 30.492 35.418 30.492 22.198 0 33.303-13.926 33.303-28.193 0-9.695-4.755-20.093-18.854-26.783v-0.535c14.279-5.632 23.085-15.678 23.085-29.606 0-19.911-17.090-33.303-38.945-33.303-23.959 0.012-38.398 14.281-38.398 31.016zM909.414 110.592c0 13.926-9.705 20.627-25.202 25.019-13.402-3.88-20.627-12.686-20.627-23.609-0.524-11.629 8.294-21.845 22.915-21.845 13.926 0 22.915 8.635 22.915 20.435zM866.771 167.867c0-11.458 8.635-17.624 21.845-21.151 9.865 3.356 17.441 10.399 17.441 20.798 0 9.159-5.45 18.683-19.376 18.683-12.869-0.012-19.911-8.465-19.911-18.33z" />
<glyph unicode="&#xe92e;" glyph-name="version" d="M221.8 384.4c-47 0-85.4-38.2-85.4-85.4 0-47 38.2-85.4 85.4-85.4 47 0 85.4 38.2 85.4 85.4 0 47-38.2 85.4-85.4 85.4zM221.8 247.8c-28.2 0-51.2 23-51.2 51.2s23 51.2 51.2 51.2 51.2-23 51.2-51.2-23-51.2-51.2-51.2zM1007 384.4v102.4c0 7.4-4.6 13.8-11.6 16.2l-96.2 32.2c-36.2 61.4-86.2 119.8-196.2 139.2-0.2 0-0.4 0-0.6 0.2-203.4 28.2-356.2-17.8-454.2-136.4-73-1-147.6-16.4-191.4-44.4-22.6-14.6-36.2-39.8-37.4-66.8l-2-42.4c-9.4 0-17-7.6-17-17v-68.2c0-9.4 7.6-17 17-17h68.2c9.4 0 17 7.8 17 17.2 0 0 0 0.2 0 0.2 0.2 65.8 53.6 119 119.4 119 66 0 119.4-53.4 119.4-119.4-1.2-10.4 7-17 17-17h307.2c9.4 0 17 7.8 17 17.2 0 0 0 0.2 0 0.2 0.2 65.8 53.6 119 119.4 119 66 0 119.4-53.4 119.4-119.4-1.2-10.4 7-17 17-17h68.2c9.4 0 17 7.6 17 17v68.2c0.4 9-7.2 16.8-16.6 16.8zM546.2 546.4c0-4.8-3.8-8.6-8.6-8.6h-222.6c-7.8 0-11.4 9.6-5.6 15 59.2 54 134.6 84.8 227.4 93 5 0.4 9.4-3.6 9.4-8.6v-90.8zM751.2 546.4c0-4.6-3.8-8.4-8.6-8.4h-153.8c-4.8 0-8.6 3.8-8.6 8.6v93.2c0 4.8 3.8 8.6 8.4 8.6 34 0 70-2.4 108.4-7.8 18.2-3.2 34.4-7.6 49.2-13 3.4-1.2 5.6-4.6 5.6-8.2l-0.6-73zM840.2 538h-46.4c-4.8 0-8.6 3.8-8.6 8.6l0.4 46.2c0 7 8.2 10.8 13.8 6.8 18.4-13.4 33.8-29.6 47.4-47.8 4.4-5.8 0.6-13.8-6.6-13.8zM802.2 384.4c-47 0-85.4-38.2-85.4-85.4 0-47 38.2-85.4 85.4-85.4 47 0 85.4 38.2 85.4 85.4-0.2 47-38.4 85.4-85.4 85.4zM802.2 247.8c-28.2 0-51.2 23-51.2 51.2s23 51.2 51.2 51.2 51.2-23 51.2-51.2-23-51.2-51.2-51.2zM263.8 630.4l-7.2-0.2c-1 4.6-2.8 8-5 11.4v0.2l5 5.2c1.2 1.2 1 3-0.2 4.2l-9.2 8.6c-1.2 1.2-3 1-4.2 0l-4.8-5.2c-3.6 2-6.8 3.6-11.4 4.4v0l-0.2 7.2c0 1.6-1.6 2.8-3.2 2.6l-12.6-0.4c-1.6 0-2.2-1.2-2.2-2.8l0.2-7.2c-4.6-1-8.2-2.8-11.4-5h-0.2l-5.4 5c-1.2 1.2-3 1-4.2-0.2l-8.6-9.2c-1.2-1.2-1-3 0-4.2l5.2-5.2c-2-3.6-3.6-7-4.4-11.6v0l-7.2-0.2c-1.6 0-2.4-1-2.4-2.6l0.4-12.6c0-1.6 1-2.8 2.6-2.6l7.2 0.2c1-4.6 2.8-7.8 5-11.2v0l-5-5.2c-1.2-1.2-1-3 0.2-4.2l9.2-8.6c1.2-1.2 3-1 4.2 0.2l5.2 5.2c3.6-2 7.2-3.6 11.8-4.4v0l0.2-7.2c0-1.6 0.8-3 2.4-3l12.6 0.4c1.6 0 3 1.6 3 3.2l-0.2 7.2c4.6 1 7.6 2.8 11 5v0l5.2-5c1.2-1.2 3-1 4.2 0.2l8.6 9.2c1.2 1.2 1 3-0.2 4.2l-5.2 5c2 3.6 3.4 7.8 4.4 11.4v0l7.2 0.2c1.6 0 3.2 1.2 3.2 3l-0.4 12.6c0.2 1.2-1.6 2-3.2 2zM211.8 603.6c-0.2 0-0.4 0.2-0.6 0.2-0.6 0.2-1 0.6-1.6 0.8-0.2 0.2-0.6 0.2-0.8 0.4s-0.4 0.4-0.8 0.4c-0.2 0-0.2 0.2-0.4 0.2-0.6 0.6-1.4 1-2 1.6s-1.2 1.2-1.6 1.8c-0.2 0.2-0.4 0.6-0.6 0.8-0.6 0.8-1 1.8-1.4 2.6-1 2.2-1.6 4.6-1.6 7-0.2 5.4 2 10.2 5.6 13.6 0.4 0.4 0.6 0.6 1 0.8 0.2 0 0.2 0.2 0.4 0.2 0.2 0.2 0.4 0.4 0.6 0.6 0.8 0.6 1.4 1 2.2 1.4 0.2 0.2 0.6 0.2 0.8 0.4 2.2 1 4.6 1.6 7 1.6 3 0 5.8-0.6 8.2-1.8 0.2-0.2 0.6-0.2 0.8-0.4 0.4-0.2 0.8-0.4 1.2-0.6 0.2-0.2 0.4-0.4 0.8-0.4 0.2 0 0.2-0.2 0.4-0.2 0.2-0.2 0.4-0.4 0.6-0.6 0.4-0.2 0.6-0.6 1-0.8 0.2-0.2 0.4-0.4 0.6-0.6 0.6-0.6 1-1 1.4-1.6 0.2-0.2 0.4-0.4 0.6-0.8 0.2-0.2 0.4-0.4 0.4-0.8 0.2-0.4 0.4-0.8 0.6-1.2 1.2-2.4 2-5 2-7.8 0-1.6-0.2-3-0.4-4.6 0-0.2-0.2-0.6-0.2-0.8-0.2-0.4-0.2-0.8-0.4-1.2-0.2-0.2-0.2-0.6-0.4-0.8 0-0.2-0.2-0.4-0.2-0.6-0.2-0.4-0.4-0.8-0.6-1s-0.2-0.6-0.4-0.8c-0.2-0.2-0.2-0.4-0.4-0.6s-0.2-0.4-0.4-0.6c0-0.2-0.2-0.2-0.2-0.4-0.2-0.2-0.4-0.4-0.6-0.6 0-0.2-0.2-0.2-0.2-0.4-0.2-0.2-0.4-0.4-0.6-0.6 0-0.2-0.2-0.2-0.4-0.4-0.4-0.4-0.8-0.8-1.2-1.2-0.2 0-0.2-0.2-0.4-0.2-0.2-0.2-0.4-0.4-0.6-0.6s-0.4-0.4-0.8-0.4c-0.2 0-0.2-0.2-0.4-0.2-0.2-0.2-0.6-0.2-0.8-0.4-2.4-1.4-5.2-2.2-8.2-2.2-2.4 0-4.6 0.4-6.8 1.2 0.2 0.4 0 0.6-0.2 0.6zM354.2 731.8l-10.6 0.6c-1 6.8-3.2 12-6 17.2v0.2l8 7.2c1.8 1.6 2 4.4 0.4 6.2l-12.4 13.8c-1.6 1.8-4.2 2-6 0.4l-7.8-7.2c-5 3.4-9.6 6-16.2 7.8v0l0.6 10.6c0.2 2.4-2 4.2-4.4 4.4l-18.6 1c-2.4 0.2-3.4-1.6-3.4-3.8l-0.6-10.6c-6.8-1-12.2-3.2-17.4-6h-0.2l-7.2 8c-1.6 1.8-4.4 2-6.2 0.4l-13.8-12.4c-1.8-1.6-2-4.2-0.4-6l7-8.2c-3.4-5-6-10-7.8-16.6v0l-10.6 0.6c-2.4 0.2-3.8-1.2-3.8-3.6l-1-18.6c-0.2-2.4 1-4.2 3.4-4.2l10.6-0.6c1-6.8 3.2-11.8 6-17v0l-8-7.2c-1.8-1.6-2-4.4-0.4-6l12.4-13.8c1.6-1.8 4.2-2 6-0.4l8.4 7c5-3.4 10.2-6 16.8-7.8v0l-0.6-10.6c-0.2-2.4 0.8-4.6 3.2-4.6l18.6-1c2.4-0.2 4.6 1.8 4.6 4.2l0.6 10.6c6.8 1 11.6 3.2 16.8 6v0l7-8c1.6-1.8 4.2-2 6-0.4l13.8 12.4c1.8 1.6 2 4.2 0.4 6l-7.2 8c3.4 5 6 11 7.8 16.4v0l10.6-0.6c2.4-0.2 5 1.6 5.2 3.8l1 18.6c0.2 2.2-2.2 3.6-4.6 3.8zM274.4 698.6c-0.2 0.2-0.6 0.2-0.8 0.4-0.8 0.4-1.4 0.8-2.2 1.4-0.4 0.2-0.8 0.4-1 0.8-0.4 0.2-0.6 0.6-1 0.8-0.2 0.2-0.4 0.2-0.4 0.4-1 0.8-1.8 1.6-2.6 2.6s-1.6 2-2.2 3c-0.2 0.4-0.6 0.8-0.8 1.2-0.8 1.2-1.4 2.6-1.8 4-1.2 3.2-1.8 6.8-1.6 10.6 0.4 7.8 4.2 14.6 9.8 19.2 0.4 0.4 1 0.8 1.6 1.2 0.2 0.2 0.4 0.2 0.6 0.4 0.4 0.2 0.8 0.4 1 0.6 1.2 0.6 2.2 1.2 3.4 1.8 0.4 0.2 0.8 0.4 1.2 0.4 3.2 1.2 6.8 1.8 10.6 1.6 4.4-0.2 8.4-1.6 12-3.6 0.4-0.2 0.8-0.4 1-0.6 0.6-0.4 1-0.8 1.6-1.2 0.4-0.2 0.6-0.6 1-0.8 0.2-0.2 0.4-0.2 0.4-0.4 0.4-0.2 0.6-0.6 1-0.8 0.4-0.4 1-1 1.4-1.4 0.2-0.4 0.6-0.6 0.8-1 0.6-0.8 1.2-1.8 1.8-2.6 0.2-0.4 0.4-0.8 0.6-1.2s0.4-0.8 0.6-1.2c0.2-0.6 0.6-1.2 0.8-1.8 1.4-3.6 2.2-7.6 2-11.8-0.2-2.4-0.6-4.6-1.2-6.6-0.2-0.4-0.2-0.8-0.4-1.2-0.2-0.6-0.4-1.2-0.8-1.8-0.2-0.4-0.4-0.8-0.6-1.2-0.2-0.2-0.2-0.6-0.4-0.8-0.2-0.6-0.6-1-0.8-1.4s-0.4-0.8-0.8-1c-0.2-0.2-0.4-0.6-0.6-0.8s-0.4-0.4-0.6-0.8c-0.2-0.2-0.2-0.4-0.4-0.4-0.2-0.4-0.6-0.6-0.8-1-0.2-0.2-0.2-0.4-0.4-0.4-0.4-0.4-0.6-0.6-1-0.8-0.2-0.2-0.4-0.2-0.4-0.4-0.6-0.6-1.4-1-2-1.6-0.2-0.2-0.4-0.2-0.6-0.4-0.4-0.2-0.8-0.4-1-0.6-0.4-0.2-0.8-0.4-1.2-0.6-0.2-0.2-0.4-0.2-0.6-0.2-0.4-0.2-0.8-0.4-1.2-0.6-3.8-1.6-8-2.4-12.4-2.2-3.6 0.2-6.8 1-9.8 2.4-0.2 0-0.6 0.2-0.8 0.4z" />
<glyph unicode="&#xe92f;" glyph-name="marca" d="M960.2 571l-2 2.2-35.8 34.6c29.8 6.6 62.4 31.4 62.4 57 0 29.6-41.6 40.2-76.4 40.2s-41.6-25.2-41.6-43l-93.8 88.8c-22.2 20.2-50.8 31.8-80.8 33.2h-358.8c-29.8-1.4-58.4-13.2-80.6-33.2l-92.4-88.8c0 17.8-4.8 43-41.6 43s-76.2-10.6-76.2-40.2c0-25.6 31.8-50.4 61.4-57l-35.6-34.6-3-2.2c-38-35.8-60.4-85.2-62.4-137.4v-130.6c0-30.4 11.8-59.6 32.6-81.8v-51.8c0.4-30.2 25.2-54.2 55.4-53.6 0 0 0 0 0 0h67c30-0.4 54.8 23.6 55.4 53.6 0 0 0 0 0 0v12.8h599.2v-12.8c0.4-30 25-54 55-53.6 0 0 0.2 0 0.2 0h67c30-0.4 54.6 23.6 55.2 53.6v51.8c21 22 32.8 51.2 32.8 81.8v130.6c-2.2 52.2-24.6 101.4-62.6 137.4zM286.4 710.4c13.4 11.2 29.6 18.4 47 20.8h359c17.2-1.8 33.4-8.4 47-19l120.6-117.2h-694.4l120.8 115.4zM45 453.4c-0.6 31.6 24.6 57.6 56.2 58.2 0 0 0.2 0 0.2 0 31 0 132.6-59.6 132.6-91.8s-102-24.4-133-24.4c-31.4 0.6-56.6 26.6-56 58zM213.4 240.8h-85.2c-14 3.8-27.2 10.2-39 18.8-4 3.2-7.6 6.8-10.6 10.8-2.4 3.2-4.4 7-5.8 10.8-4 14.8-1 30.6 8.4 42.8h109.4l72.2-83.2h-49.4zM669 240.8h-312c-32.6 0.2-58.8 26.6-58.8 59h429.8c0.2-32.6-26.2-59.2-58.8-59.2 0 0 0 0 0 0v0.2zM682.6 340h-339.4c-35.4 0-64 43.4-64 97.4h467.4c0-54-28.8-97.6-64-97.6v0.2zM953 281.2c-1.4-4-3.2-7.6-5.8-10.8-3-4-6.6-7.6-10.6-10.8-11.8-8.6-25-15-39-18.8h-134.2l72.4 83.2h108.4c9.4-12.2 12.6-28.2 8.6-43l0.2 0.2zM925.2 395.6c-31 0-132.6-7.4-132.6 24.6s101.6 91.8 132.6 91.8c32.2-2 56.6-29.6 54.6-61.6-1.8-29.6-25.2-53-54.6-54.8z" />
<glyph unicode="&#xe930;" d="M1008.4 248.4c0 0 40.6 160.4-3.6 236.2 0 0 26.4-31.8-149.8-23 0 0-35.2 14.2 7 86.4 0 0 81.2 31.8 130.4 23 0 0-42.4 81.2-44 93.4-1.8 12.4-44 179.8-123.4 197.6s-476.2 44-610.2 0c-63.4-14-81-67-81-67l-100.6-220.4c0 0 130.4-8.8 139.4-38.8 8.8-30 37-75.8-17.6-72.4-54.6 3.6-130.4-1.8-137.6 15.8 0 0-37-174.6 12.4-246.8s105.8-60 105.8-60 19.4-51.2 146.4-15.8c44 10.6 430.2 5.2 430.2 5.2s60-7 61.8-14.2 102.2-17.6 127 24.6c-0.2 0.4 79.2 7.4 107.4 76.2z" />
<glyph unicode="&#xe931;" d="M20.8 557c0 0 112.8 1.8 90-40.6s-93.4-5.2-93.4-5.2-1.8 26.4 3.4 45.8z" />
<glyph unicode="&#xe932;" d="M1005.2 555.6c0 0-112.8-1-89-42.8s93.6-3 93.6-3 1 26.4-4.6 45.8z" />
<glyph unicode="&#xe933;" d="M669 290.8h-312.2c-8.2 0-15 6.8-15 15v38.8c0 8.2 6.8 15 15 15h312.2c8.2 0 15-6.8 15-15v-38.8c0-8.4-6.8-15-15-15z" />
<glyph unicode="&#xe934;" d="M860.2 691c0 0-349.2-95.2-694.8 0 0 0-5.2 137.6 116.4 149.8s227.4 44 479.6-5.2c0 0 84.8 8.8 98.8-144.6z" />
<glyph unicode="&#xe935;" d="M1008.4 248.4c0 0 26.4-211.6-12.4-208s-81.2 0-81.2 0-21.2-3.6-21.2 24.6c0 28.2-3.6 118.2-3.6 118.2l118.4 65.2z" />
<glyph unicode="&#xe936;" d="M135.4 172.6l3.6-111c0 0-15.8-21.2-26.4-21.2s-79.4 1.6-79.4 1.6-15.8 7-17.6 26.4 1.8 199.2 1.8 199.2 116.4-79.2 118-95z" />
<glyph unicode="&#xe937;" d="M482 305v11.2h-19v3.6l18.4 26.2h6v-25.6h5.8v-4.4h-5.8v-11.2h-5.4zM482 320.4v13.8c0 2.2 0 4.2 0.2 6.4h-0.2c-1.2-2.4-2.2-4.2-3.4-6l-10-14v-0.2h13.4z" />
<glyph unicode="&#xe938;" d="M501.6 335.6l4.4-6.6c1.2-1.8 2-3.2 3-5h0.2c1 1.8 2 3.4 3 5l4.2 6.6h6l-10.4-14.8 10.8-15.8h-6.4l-4.4 6.8c-1.2 1.8-2.2 3.4-3.2 5.4h-0.2c-1-1.8-2-3.4-3.2-5.4l-4.4-6.8h-6.2l10.8 15.6-10.4 15h6.4z" />
<glyph unicode="&#xe939;" d="M543.6 305v11.2h-19v3.6l18.4 26.2h6v-25.6h5.8v-4.4h-5.8v-11.2h-5.4zM543.6 320.4v13.8c0 2.2 0 4.2 0.2 6.4h-0.2c-1.2-2.4-2.2-4.2-3.4-6l-10-14v-0.2h13.4z" />
</font>
</defs>
</svg>
